<svg width="268" height="176" viewBox="0 0 268 176" fill="none" xmlns="http://www.w3.org/2000/svg">
<g filter="url(#filter0_d_76_41)">
<path d="M4 9C4 6.23858 6.23858 4 9 4H259C261.761 4 264 6.23858 264 9V167C264 169.761 261.761 172 259 172H9C6.23858 172 4 169.761 4 167V9Z" fill="#FAFAFA"/>
<path d="M9 4.5H259C261.485 4.5 263.5 6.51472 263.5 9V167C263.5 169.485 261.485 171.5 259 171.5H9C6.51472 171.5 4.5 169.485 4.5 167V9L4.50586 8.76855C4.62632 6.39083 6.59234 4.5 9 4.5Z" stroke="black"/>
</g>
<line x1="4" y1="34.5" x2="264" y2="34.5" stroke="black"/>
<line x1="4" y1="62.5" x2="264" y2="62.5" stroke="black"/>
<line x1="4" y1="89.5" x2="264" y2="89.5" stroke="black"/>
<line x1="4" y1="117.5" x2="264" y2="117.5" stroke="black"/>
<line x1="4" y1="143.5" x2="264" y2="143.5" stroke="black"/>
<line x1="68.5" y1="5" x2="68.5" y2="172" stroke="black"/>
<line x1="135.5" y1="5" x2="135.5" y2="172" stroke="black"/>
<line x1="200.5" y1="4" x2="200.5" y2="172" stroke="black"/>
<path d="M29.6349 24.3806V17.8352H30.9091V24.3806H29.6349ZM30.2784 16.8252C30.0568 16.8252 29.8664 16.7514 29.7074 16.6036C29.5511 16.4531 29.473 16.2741 29.473 16.0667C29.473 15.8565 29.5511 15.6775 29.7074 15.5298C29.8664 15.3792 30.0568 15.3039 30.2784 15.3039C30.5 15.3039 30.6889 15.3792 30.8451 15.5298C31.0042 15.6775 31.0838 15.8565 31.0838 16.0667C31.0838 16.2741 31.0042 16.4531 30.8451 16.6036C30.6889 16.7514 30.5 16.8252 30.2784 16.8252ZM35.0735 24.5085C34.5451 24.5085 34.0735 24.3735 33.6587 24.1036C33.2468 23.8309 32.9229 23.4431 32.6871 22.9403C32.4542 22.4346 32.3377 21.8281 32.3377 21.1207C32.3377 20.4133 32.4556 19.8082 32.6914 19.3053C32.93 18.8025 33.2567 18.4175 33.6715 18.1505C34.0863 17.8835 34.5564 17.7499 35.082 17.7499C35.4883 17.7499 35.815 17.8181 36.0621 17.9545C36.3121 18.088 36.5053 18.2443 36.6417 18.4232C36.7809 18.6022 36.8888 18.7599 36.9655 18.8962H37.0422V15.6533H38.3164V24.3806H37.0721V23.3621H36.9655C36.8888 23.5014 36.778 23.6604 36.6331 23.8394C36.4911 24.0184 36.2951 24.1746 36.0451 24.3082C35.7951 24.4417 35.4712 24.5085 35.0735 24.5085ZM35.3547 23.4218C35.7212 23.4218 36.0309 23.3252 36.2837 23.132C36.5394 22.936 36.7326 22.6647 36.8633 22.3181C36.9968 21.9715 37.0635 21.5681 37.0635 21.1079C37.0635 20.6533 36.9982 20.2556 36.8675 19.9147C36.7368 19.5738 36.5451 19.3082 36.2922 19.1178C36.0394 18.9275 35.7269 18.8323 35.3547 18.8323C34.9712 18.8323 34.6516 18.9318 34.3959 19.1306C34.1402 19.3295 33.9471 19.6008 33.8164 19.9445C33.6885 20.2883 33.6246 20.6761 33.6246 21.1079C33.6246 21.5454 33.69 21.9389 33.8206 22.2883C33.9513 22.6377 34.1445 22.9147 34.4002 23.1193C34.6587 23.321 34.9769 23.4218 35.3547 23.4218Z" fill="black"/>
<path d="M36.2187 44.1648V52.8921H34.8977V45.4858H34.8466L32.7585 46.8495V45.5881L34.9361 44.1648H36.2187Z" fill="black"/>
<path d="M32.9077 80.3069V79.3523L35.8608 76.2927C36.1761 75.9603 36.4361 75.6691 36.6406 75.4191C36.848 75.1663 37.0028 74.9262 37.1051 74.6989C37.2074 74.4717 37.2585 74.2302 37.2585 73.9745C37.2585 73.6847 37.1903 73.4347 37.054 73.2245C36.9176 73.0114 36.7315 72.8481 36.4957 72.7344C36.2599 72.618 35.9943 72.5597 35.6989 72.5597C35.3864 72.5597 35.1136 72.6236 34.8807 72.7515C34.6477 72.8793 34.4687 73.0597 34.3437 73.2927C34.2187 73.5256 34.1562 73.7984 34.1562 74.1109H32.8991C32.8991 73.5796 33.0213 73.1151 33.2656 72.7174C33.5099 72.3197 33.8452 72.0114 34.2713 71.7927C34.6974 71.5711 35.1818 71.4603 35.7244 71.4603C36.2727 71.4603 36.7557 71.5697 37.1733 71.7884C37.5937 72.0043 37.9219 72.2998 38.1577 72.6748C38.3935 73.0469 38.5114 73.4674 38.5114 73.9361C38.5114 74.26 38.4503 74.5768 38.3281 74.8864C38.2088 75.1961 38 75.5413 37.7017 75.9219C37.4034 76.2998 36.9886 76.7586 36.4574 77.2984L34.723 79.1137V79.1776H38.652V80.3069H32.9077Z" fill="black"/>
<path d="M35.946 107.841C35.3608 107.841 34.8381 107.74 34.3778 107.538C33.9204 107.337 33.5582 107.057 33.2912 106.699C33.027 106.338 32.8849 105.921 32.8651 105.446H34.2031C34.2202 105.705 34.3068 105.929 34.4631 106.119C34.6222 106.307 34.8295 106.452 35.0852 106.554C35.3409 106.656 35.625 106.707 35.9375 106.707C36.2812 106.707 36.5852 106.648 36.8494 106.528C37.1165 106.409 37.3253 106.243 37.4758 106.03C37.6264 105.814 37.7017 105.565 37.7017 105.284C37.7017 104.992 37.6264 104.734 37.4758 104.513C37.3281 104.288 37.1108 104.112 36.8239 103.984C36.5398 103.857 36.196 103.793 35.7926 103.793H35.0554V102.719H35.7926C36.1165 102.719 36.4006 102.661 36.6449 102.544C36.892 102.428 37.0852 102.266 37.2244 102.058C37.3636 101.848 37.4332 101.602 37.4332 101.321C37.4332 101.051 37.3722 100.817 37.25 100.618C37.1307 100.416 36.9602 100.259 36.7386 100.145C36.5199 100.031 36.2614 99.9745 35.9631 99.9745C35.679 99.9745 35.4133 100.027 35.1662 100.132C34.9219 100.234 34.723 100.382 34.5696 100.575C34.4162 100.766 34.3338 100.994 34.3224 101.261H33.0483C33.0625 100.79 33.2017 100.375 33.4659 100.017C33.7329 99.6592 34.0852 99.3793 34.5227 99.1776C34.9602 98.9759 35.446 98.8751 35.9801 98.8751C36.5398 98.8751 37.0227 98.9845 37.429 99.2032C37.8381 99.4191 38.1534 99.7075 38.375 100.068C38.5994 100.429 38.7102 100.824 38.7074 101.253C38.7102 101.742 38.5739 102.156 38.2983 102.497C38.0256 102.838 37.6619 103.067 37.2074 103.183V103.252C37.7869 103.34 38.2358 103.57 38.554 103.942C38.875 104.314 39.0341 104.776 39.0312 105.327C39.0341 105.807 38.9006 106.237 38.6307 106.618C38.3636 106.999 37.9986 107.298 37.5355 107.517C37.0724 107.733 36.5426 107.841 35.946 107.841Z" fill="black"/>
<path d="M32.7244 133.335V132.27L36.4957 126.313H37.3352V127.881H36.8026L34.1051 132.151V132.219H39.2741V133.335H32.7244ZM36.8622 135.04V133.011L36.8707 132.526V126.313H38.1193V135.04H36.8622Z" fill="black"/>
<path d="M35.7883 161.574C35.2543 161.574 34.7741 161.472 34.348 161.267C33.9247 161.06 33.5866 160.776 33.3338 160.415C33.081 160.054 32.946 159.642 32.929 159.179H34.2074C34.2386 159.554 34.4048 159.862 34.706 160.104C35.0071 160.345 35.3679 160.466 35.7883 160.466C36.1236 160.466 36.4204 160.389 36.679 160.236C36.9403 160.08 37.1449 159.865 37.2926 159.592C37.4432 159.32 37.5185 159.009 37.5185 158.659C37.5185 158.304 37.4418 157.987 37.2883 157.709C37.1349 157.43 36.9233 157.212 36.6534 157.053C36.3864 156.894 36.0795 156.813 35.7329 156.81C35.4687 156.81 35.2031 156.855 34.9361 156.946C34.669 157.037 34.4531 157.156 34.2883 157.304L33.0824 157.125L33.5724 152.727H38.3707V153.857H34.6676L34.3906 156.298H34.4418C34.6122 156.134 34.8381 155.996 35.1193 155.885C35.4034 155.774 35.7074 155.719 36.0312 155.719C36.5625 155.719 37.0355 155.845 37.4503 156.098C37.8679 156.351 38.196 156.696 38.4347 157.134C38.6761 157.568 38.7954 158.068 38.7926 158.634C38.7954 159.199 38.6676 159.703 38.4091 160.146C38.1534 160.59 37.7983 160.939 37.3437 161.195C36.892 161.447 36.3736 161.574 35.7883 161.574Z" fill="black"/>
<path d="M88.1307 20.1136V24H86.8565V17.4545H88.0795V18.5199H88.1605C88.3111 18.1733 88.5469 17.8949 88.8679 17.6847C89.1918 17.4744 89.5994 17.3693 90.0909 17.3693C90.5369 17.3693 90.9276 17.4631 91.2628 17.6506C91.598 17.8352 91.858 18.1108 92.0426 18.4773C92.2273 18.8437 92.3196 19.2969 92.3196 19.8366V24H91.0455V19.9901C91.0455 19.5156 90.9219 19.1449 90.6747 18.8778C90.4276 18.608 90.0881 18.473 89.6562 18.473C89.3608 18.473 89.098 18.5369 88.8679 18.6648C88.6406 18.7926 88.4602 18.9801 88.3267 19.2273C88.196 19.4716 88.1307 19.767 88.1307 20.1136ZM95.9332 24.1449C95.5185 24.1449 95.1435 24.0682 94.8082 23.9148C94.473 23.7585 94.2074 23.5327 94.0114 23.2372C93.8182 22.9418 93.7216 22.5795 93.7216 22.1506C93.7216 21.7812 93.7926 21.4773 93.9347 21.2386C94.0767 21 94.2685 20.8111 94.5099 20.6719C94.7514 20.5327 95.0213 20.4276 95.3196 20.3565C95.6179 20.2855 95.9219 20.2315 96.2315 20.1946C96.6236 20.1491 96.9418 20.1122 97.1861 20.0838C97.4304 20.0526 97.608 20.0028 97.7188 19.9347C97.8295 19.8665 97.8849 19.7557 97.8849 19.6023V19.5724C97.8849 19.2003 97.7798 18.9119 97.5696 18.7074C97.3622 18.5028 97.0526 18.4006 96.6406 18.4006C96.2116 18.4006 95.8736 18.4957 95.6264 18.6861C95.3821 18.8736 95.2131 19.0824 95.1193 19.3125L93.9219 19.0398C94.0639 18.642 94.2713 18.321 94.544 18.0767C94.8196 17.8295 95.1364 17.6506 95.4943 17.5398C95.8523 17.4261 96.2287 17.3693 96.6236 17.3693C96.8849 17.3693 97.1619 17.4006 97.4545 17.4631C97.75 17.5227 98.0256 17.6335 98.2812 17.7955C98.5398 17.9574 98.7514 18.1889 98.9162 18.4901C99.081 18.7884 99.1634 19.1761 99.1634 19.6534V24H97.919V23.1051H97.8679C97.7855 23.2699 97.6619 23.4318 97.4972 23.5909C97.3324 23.75 97.1207 23.8821 96.8622 23.9872C96.6037 24.0923 96.294 24.1449 95.9332 24.1449ZM96.2102 23.1222C96.5625 23.1222 96.8636 23.0526 97.1136 22.9134C97.3665 22.7741 97.5582 22.5923 97.6889 22.3679C97.8224 22.1406 97.8892 21.8977 97.8892 21.6392V20.7955C97.8438 20.8409 97.7557 20.8835 97.625 20.9233C97.4972 20.9602 97.3509 20.9929 97.1861 21.0213C97.0213 21.0469 96.8608 21.071 96.7045 21.0938C96.5483 21.1136 96.4176 21.1307 96.3125 21.1449C96.0653 21.1761 95.8395 21.2287 95.6349 21.3026C95.4332 21.3764 95.2713 21.483 95.1491 21.6222C95.0298 21.7585 94.9702 21.9403 94.9702 22.1676C94.9702 22.483 95.0866 22.7216 95.3196 22.8835C95.5526 23.0426 95.8494 23.1222 96.2102 23.1222ZM100.86 24V17.4545H102.083V18.5199H102.164C102.301 18.1591 102.524 17.8778 102.833 17.6761C103.143 17.4716 103.514 17.3693 103.946 17.3693C104.383 17.3693 104.75 17.4716 105.045 17.6761C105.343 17.8807 105.564 18.1619 105.706 18.5199H105.774C105.93 18.1705 106.179 17.892 106.52 17.6847C106.86 17.4744 107.267 17.3693 107.738 17.3693C108.332 17.3693 108.816 17.5554 109.191 17.9276C109.569 18.2997 109.758 18.8608 109.758 19.6108V24H108.484V19.7301C108.484 19.2869 108.363 18.9659 108.122 18.767C107.88 18.5682 107.592 18.4688 107.257 18.4688C106.842 18.4688 106.52 18.5966 106.289 18.8523C106.059 19.1051 105.944 19.4304 105.944 19.8281V24H104.674V19.6491C104.674 19.294 104.564 19.0085 104.342 18.7926C104.12 18.5767 103.832 18.4688 103.477 18.4688C103.235 18.4688 103.012 18.5327 102.808 18.6605C102.606 18.7855 102.443 18.9602 102.318 19.1847C102.196 19.4091 102.135 19.669 102.135 19.9645V24H100.86ZM114.287 24.1321C113.642 24.1321 113.087 23.9943 112.621 23.7188C112.158 23.4403 111.8 23.0497 111.547 22.5469C111.297 22.0412 111.172 21.4489 111.172 20.7699C111.172 20.0994 111.297 19.5085 111.547 18.9972C111.8 18.4858 112.152 18.0866 112.604 17.7997C113.058 17.5128 113.589 17.3693 114.197 17.3693C114.567 17.3693 114.925 17.4304 115.271 17.5526C115.618 17.6747 115.929 17.8665 116.205 18.1278C116.48 18.3892 116.697 18.7287 116.857 19.1463C117.016 19.5611 117.095 20.0653 117.095 20.6591V21.1108H111.892V20.1562H115.847C115.847 19.821 115.778 19.5241 115.642 19.2656C115.506 19.0043 115.314 18.7983 115.067 18.6477C114.822 18.4972 114.536 18.4219 114.206 18.4219C113.848 18.4219 113.536 18.5099 113.268 18.6861C113.004 18.8594 112.8 19.0866 112.655 19.3679C112.513 19.6463 112.442 19.9489 112.442 20.2756V21.0213C112.442 21.4588 112.518 21.831 112.672 22.1378C112.828 22.4446 113.045 22.679 113.324 22.8409C113.602 23 113.928 23.0795 114.3 23.0795C114.541 23.0795 114.761 23.0455 114.96 22.9773C115.159 22.9062 115.331 22.8011 115.476 22.6619C115.621 22.5227 115.732 22.3509 115.808 22.1463L117.014 22.3636C116.918 22.7187 116.744 23.0298 116.494 23.2969C116.247 23.5611 115.936 23.767 115.561 23.9148C115.189 24.0597 114.764 24.1321 114.287 24.1321Z" fill="black"/>
<path d="M90.8565 73.4545H92.1307V80.4261C92.1307 80.8636 92.0511 81.233 91.892 81.5341C91.7358 81.8352 91.5028 82.0639 91.1932 82.2202C90.8864 82.3764 90.5071 82.4545 90.0554 82.4545C90.0099 82.4545 89.9673 82.4545 89.9276 82.4545C89.8849 82.4545 89.8409 82.4531 89.7955 82.4503V81.3551C89.8352 81.3551 89.8707 81.3551 89.902 81.3551C89.9304 81.3551 89.9631 81.3551 90 81.3551C90.3011 81.3551 90.5185 81.2741 90.652 81.1122C90.7884 80.9531 90.8565 80.7216 90.8565 80.4176V73.4545ZM91.4872 72.4446C91.2656 72.4446 91.0753 72.3707 90.9162 72.223C90.7599 72.0724 90.6818 71.8935 90.6818 71.6861C90.6818 71.4759 90.7599 71.2969 90.9162 71.1491C91.0753 70.9986 91.2656 70.9233 91.4872 70.9233C91.7088 70.9233 91.8977 70.9986 92.054 71.1491C92.2131 71.2969 92.2926 71.4759 92.2926 71.6861C92.2926 71.8935 92.2131 72.0724 92.054 72.223C91.8977 72.3707 91.7088 72.4446 91.4872 72.4446ZM96.6019 80.1321C95.9883 80.1321 95.4528 79.9915 94.9954 79.7102C94.538 79.429 94.1829 79.0355 93.93 78.5298C93.6772 78.0241 93.5508 77.4332 93.5508 76.7571C93.5508 76.0781 93.6772 75.4844 93.93 74.9759C94.1829 74.4673 94.538 74.0724 94.9954 73.7912C95.4528 73.5099 95.9883 73.3693 96.6019 73.3693C97.2156 73.3693 97.7511 73.5099 98.2085 73.7912C98.6658 74.0724 99.021 74.4673 99.2738 74.9759C99.5266 75.4844 99.6531 76.0781 99.6531 76.7571C99.6531 77.4332 99.5266 78.0241 99.2738 78.5298C99.021 79.0355 98.6658 79.429 98.2085 79.7102C97.7511 79.9915 97.2156 80.1321 96.6019 80.1321ZM96.6062 79.0625C97.0039 79.0625 97.3335 78.9574 97.5948 78.7472C97.8562 78.5369 98.0494 78.2571 98.1744 77.9077C98.3022 77.5582 98.3661 77.1733 98.3661 76.7528C98.3661 76.3352 98.3022 75.9517 98.1744 75.6023C98.0494 75.25 97.8562 74.9673 97.5948 74.7543C97.3335 74.5412 97.0039 74.4347 96.6062 74.4347C96.2056 74.4347 95.8732 74.5412 95.609 74.7543C95.3477 74.9673 95.1531 75.25 95.0252 75.6023C94.9002 75.9517 94.8377 76.3352 94.8377 76.7528C94.8377 77.1733 94.9002 77.5582 95.0252 77.9077C95.1531 78.2571 95.3477 78.5369 95.609 78.7472C95.8732 78.9574 96.2056 79.0625 96.6062 79.0625ZM102.349 76.1136V80H101.075V71.2727H102.332V74.5199H102.413C102.567 74.1676 102.801 73.8878 103.116 73.6804C103.432 73.473 103.844 73.3693 104.352 73.3693C104.801 73.3693 105.193 73.4616 105.528 73.6463C105.866 73.831 106.128 74.1065 106.312 74.473C106.5 74.8366 106.594 75.2912 106.594 75.8366V80H105.32V75.9901C105.32 75.5099 105.196 75.1378 104.949 74.8736C104.702 74.6065 104.358 74.473 103.918 74.473C103.616 74.473 103.347 74.5369 103.108 74.6648C102.872 74.7926 102.686 74.9801 102.55 75.2273C102.416 75.4716 102.349 75.767 102.349 76.1136ZM109.568 76.1136V80H108.294V73.4545H109.517V74.5199H109.598C109.749 74.1733 109.984 73.8949 110.305 73.6847C110.629 73.4744 111.037 73.3693 111.528 73.3693C111.974 73.3693 112.365 73.4631 112.7 73.6506C113.036 73.8352 113.295 74.1108 113.48 74.4773C113.665 74.8437 113.757 75.2969 113.757 75.8366V80H112.483V75.9901C112.483 75.5156 112.359 75.1449 112.112 74.8778C111.865 74.608 111.526 74.473 111.094 74.473C110.798 74.473 110.536 74.5369 110.305 74.6648C110.078 74.7926 109.898 74.9801 109.764 75.2273C109.634 75.4716 109.568 75.767 109.568 76.1136Z" fill="black"/>
<path d="M164.52 44.1648V52.8921H163.199V45.4858H163.148L161.06 46.8495V45.5881L163.237 44.1648H164.52ZM169.83 53.0114C169.219 53.0114 168.679 52.9063 168.21 52.6961C167.744 52.4858 167.379 52.1961 167.115 51.8267C166.851 51.4574 166.72 51.037 166.723 50.5654C166.72 50.1961 166.795 49.8566 166.949 49.5469C167.105 49.2344 167.317 48.9745 167.584 48.7671C167.851 48.5569 168.149 48.4233 168.479 48.3665V48.3154C168.044 48.2103 167.696 47.9773 167.435 47.6165C167.173 47.2557 167.044 46.841 167.047 46.3722C167.044 45.9262 167.162 45.5285 167.401 45.179C167.642 44.8267 167.973 44.5498 168.393 44.3481C168.814 44.1464 169.293 44.0455 169.83 44.0455C170.361 44.0455 170.835 44.1478 171.253 44.3523C171.673 44.554 172.004 44.831 172.246 45.1833C172.487 45.5327 172.609 45.929 172.612 46.3722C172.609 46.841 172.476 47.2557 172.212 47.6165C171.947 47.9773 171.604 48.2103 171.18 48.3154V48.3665C171.507 48.4233 171.801 48.5569 172.063 48.7671C172.327 48.9745 172.537 49.2344 172.693 49.5469C172.852 49.8566 172.933 50.1961 172.936 50.5654C172.933 51.037 172.8 51.4574 172.536 51.8267C172.271 52.1961 171.905 52.4858 171.436 52.6961C170.97 52.9063 170.435 53.0114 169.83 53.0114ZM169.83 51.9333C170.19 51.9333 170.503 51.8736 170.767 51.7543C171.031 51.6321 171.236 51.4631 171.381 51.2472C171.526 51.0285 171.599 50.7728 171.602 50.4802C171.599 50.1762 171.52 49.9077 171.364 49.6748C171.21 49.4418 171.001 49.2586 170.737 49.125C170.473 48.9915 170.17 48.9248 169.83 48.9248C169.486 48.9248 169.18 48.9915 168.913 49.125C168.646 49.2586 168.436 49.4418 168.283 49.6748C168.129 49.9077 168.054 50.1762 168.057 50.4802C168.054 50.7728 168.124 51.0285 168.266 51.2472C168.411 51.4631 168.616 51.6321 168.884 51.7543C169.151 51.8736 169.466 51.9333 169.83 51.9333ZM169.83 47.8722C170.119 47.8722 170.376 47.814 170.601 47.6975C170.825 47.581 171.001 47.4191 171.129 47.2117C171.26 47.0043 171.327 46.7614 171.33 46.483C171.327 46.2103 171.261 45.9716 171.134 45.7671C171.009 45.5625 170.834 45.4049 170.609 45.2941C170.385 45.1804 170.125 45.1236 169.83 45.1236C169.528 45.1236 169.264 45.1804 169.037 45.2941C168.813 45.4049 168.638 45.5625 168.513 45.7671C168.388 45.9716 168.327 46.2103 168.33 46.483C168.327 46.7614 168.389 47.0043 168.517 47.2117C168.645 47.4191 168.821 47.581 169.045 47.6975C169.273 47.814 169.534 47.8722 169.83 47.8722Z" fill="black"/>
<path d="M161.209 80.3069V79.3523L164.162 76.2927C164.477 75.9603 164.737 75.6691 164.942 75.4191C165.149 75.1663 165.304 74.9262 165.406 74.6989C165.509 74.4717 165.56 74.2302 165.56 73.9745C165.56 73.6847 165.491 73.4347 165.355 73.2245C165.219 73.0114 165.033 72.8481 164.797 72.7344C164.561 72.618 164.295 72.5597 164 72.5597C163.688 72.5597 163.415 72.6236 163.182 72.7515C162.949 72.8793 162.77 73.0597 162.645 73.2927C162.52 73.5256 162.457 73.7984 162.457 74.1109H161.2C161.2 73.5796 161.322 73.1151 161.567 72.7174C161.811 72.3197 162.146 72.0114 162.572 71.7927C162.999 71.5711 163.483 71.4603 164.026 71.4603C164.574 71.4603 165.057 71.5697 165.474 71.7884C165.895 72.0043 166.223 72.2998 166.459 72.6748C166.695 73.0469 166.813 73.4674 166.813 73.9361C166.813 74.26 166.751 74.5768 166.629 74.8864C166.51 75.1961 166.301 75.5413 166.003 75.9219C165.705 76.2998 165.29 76.7586 164.759 77.2984L163.024 79.1137V79.1776H166.953V80.3069H161.209ZM171.879 71.5796V80.3069H170.558V72.9006H170.507L168.419 74.2643V73.0029L170.597 71.5796H171.879Z" fill="black"/>
<path d="M163.151 108.937C162.565 108.937 162.043 108.837 161.582 108.635C161.125 108.433 160.763 108.153 160.496 107.795C160.232 107.435 160.089 107.017 160.07 106.543H161.408C161.425 106.801 161.511 107.026 161.668 107.216C161.827 107.403 162.034 107.548 162.29 107.651C162.545 107.753 162.83 107.804 163.142 107.804C163.486 107.804 163.79 107.744 164.054 107.625C164.321 107.506 164.53 107.339 164.68 107.126C164.831 106.91 164.906 106.662 164.906 106.381C164.906 106.088 164.831 105.831 164.68 105.609C164.533 105.385 164.315 105.209 164.028 105.081C163.744 104.953 163.401 104.889 162.997 104.889H162.26V103.815H162.997C163.321 103.815 163.605 103.757 163.849 103.641C164.097 103.524 164.29 103.362 164.429 103.155C164.568 102.945 164.638 102.699 164.638 102.418C164.638 102.148 164.577 101.913 164.455 101.714C164.335 101.513 164.165 101.355 163.943 101.241C163.724 101.128 163.466 101.071 163.168 101.071C162.884 101.071 162.618 101.124 162.371 101.229C162.126 101.331 161.928 101.479 161.774 101.672C161.621 101.862 161.538 102.091 161.527 102.358H160.253C160.267 101.886 160.406 101.472 160.67 101.114C160.937 100.756 161.29 100.476 161.727 100.274C162.165 100.072 162.651 99.9715 163.185 99.9715C163.744 99.9715 164.227 100.081 164.634 100.3C165.043 100.516 165.358 100.804 165.58 101.165C165.804 101.526 165.915 101.92 165.912 102.349C165.915 102.838 165.778 103.253 165.503 103.594C165.23 103.935 164.866 104.163 164.412 104.28V104.348C164.991 104.436 165.44 104.666 165.759 105.038C166.08 105.41 166.239 105.872 166.236 106.423C166.239 106.903 166.105 107.334 165.835 107.714C165.568 108.095 165.203 108.395 164.74 108.614C164.277 108.829 163.747 108.937 163.151 108.937ZM170.885 108.937C170.3 108.937 169.777 108.837 169.317 108.635C168.859 108.433 168.497 108.153 168.23 107.795C167.966 107.435 167.824 107.017 167.804 106.543H169.142C169.159 106.801 169.246 107.026 169.402 107.216C169.561 107.403 169.768 107.548 170.024 107.651C170.28 107.753 170.564 107.804 170.876 107.804C171.22 107.804 171.524 107.744 171.788 107.625C172.055 107.506 172.264 107.339 172.415 107.126C172.565 106.91 172.641 106.662 172.641 106.381C172.641 106.088 172.565 105.831 172.415 105.609C172.267 105.385 172.05 105.209 171.763 105.081C171.479 104.953 171.135 104.889 170.732 104.889H169.994V103.815H170.732C171.055 103.815 171.339 103.757 171.584 103.641C171.831 103.524 172.024 103.362 172.163 103.155C172.303 102.945 172.372 102.699 172.372 102.418C172.372 102.148 172.311 101.913 172.189 101.714C172.07 101.513 171.899 101.355 171.678 101.241C171.459 101.128 171.2 101.071 170.902 101.071C170.618 101.071 170.352 101.124 170.105 101.229C169.861 101.331 169.662 101.479 169.509 101.672C169.355 101.862 169.273 102.091 169.261 102.358H167.987C168.001 101.886 168.141 101.472 168.405 101.114C168.672 100.756 169.024 100.476 169.462 100.274C169.899 100.072 170.385 99.9715 170.919 99.9715C171.479 99.9715 171.962 100.081 172.368 100.3C172.777 100.516 173.092 100.804 173.314 101.165C173.538 101.526 173.649 101.92 173.646 102.349C173.649 102.838 173.513 103.253 173.237 103.594C172.964 103.935 172.601 104.163 172.146 104.28V104.348C172.726 104.436 173.175 104.666 173.493 105.038C173.814 105.41 173.973 105.872 173.97 106.423C173.973 106.903 173.839 107.334 173.57 107.714C173.303 108.095 172.937 108.395 172.474 108.614C172.011 108.829 171.482 108.937 170.885 108.937Z" fill="black"/>
<path d="M220.878 108.145C220.205 108.142 219.629 107.964 219.152 107.612C218.675 107.26 218.31 106.747 218.057 106.074C217.804 105.401 217.678 104.589 217.678 103.641C217.678 102.695 217.804 101.886 218.057 101.216C218.313 100.545 218.679 100.034 219.156 99.6818C219.636 99.3295 220.21 99.1534 220.878 99.1534C221.545 99.1534 222.118 99.331 222.595 99.6861C223.072 100.038 223.438 100.55 223.69 101.22C223.946 101.888 224.074 102.695 224.074 103.641C224.074 104.592 223.947 105.405 223.695 106.078C223.442 106.749 223.077 107.261 222.599 107.616C222.122 107.969 221.548 108.145 220.878 108.145ZM220.878 107.007C221.469 107.007 221.93 106.719 222.263 106.142C222.598 105.565 222.766 104.732 222.766 103.641C222.766 102.916 222.689 102.304 222.536 101.804C222.385 101.301 222.168 100.92 221.884 100.662C221.602 100.401 221.267 100.27 220.878 100.27C220.29 100.27 219.828 100.56 219.493 101.139C219.158 101.719 218.989 102.553 218.986 103.641C218.986 104.368 219.061 104.983 219.212 105.486C219.365 105.986 219.582 106.365 219.864 106.624C220.145 106.879 220.483 107.007 220.878 107.007ZM228.488 99.1534C228.877 99.1562 229.26 99.2273 229.638 99.3665C230.016 99.5057 230.357 99.733 230.661 100.048C230.968 100.364 231.212 100.79 231.394 101.327C231.578 101.861 231.672 102.526 231.675 103.321C231.675 104.085 231.598 104.766 231.445 105.362C231.292 105.956 231.071 106.457 230.784 106.866C230.5 107.276 230.155 107.587 229.749 107.8C229.343 108.013 228.885 108.119 228.377 108.119C227.857 108.119 227.395 108.017 226.992 107.812C226.588 107.608 226.26 107.325 226.007 106.964C225.755 106.601 225.597 106.183 225.534 105.712H226.834C226.919 106.087 227.093 106.391 227.354 106.624C227.618 106.854 227.959 106.969 228.377 106.969C229.016 106.969 229.515 106.69 229.873 106.134C230.23 105.574 230.411 104.793 230.414 103.79H230.346C230.198 104.034 230.013 104.244 229.792 104.42C229.573 104.597 229.327 104.733 229.054 104.83C228.782 104.926 228.49 104.974 228.181 104.974C227.678 104.974 227.221 104.851 226.809 104.604C226.397 104.357 226.069 104.017 225.824 103.585C225.58 103.153 225.458 102.661 225.458 102.107C225.458 101.555 225.583 101.055 225.833 100.607C226.086 100.158 226.438 99.8026 226.89 99.5412C227.344 99.277 227.877 99.1477 228.488 99.1534ZM228.492 100.261C228.159 100.261 227.86 100.344 227.593 100.509C227.328 100.67 227.12 100.891 226.966 101.169C226.813 101.445 226.736 101.751 226.736 102.089C226.736 102.428 226.81 102.734 226.958 103.01C227.108 103.283 227.313 103.5 227.571 103.662C227.833 103.821 228.131 103.901 228.466 103.901C228.716 103.901 228.949 103.852 229.165 103.756C229.381 103.659 229.57 103.526 229.732 103.355C229.894 103.182 230.02 102.986 230.111 102.767C230.202 102.548 230.248 102.318 230.248 102.077C230.248 101.756 230.171 101.457 230.017 101.182C229.867 100.906 229.659 100.685 229.395 100.517C229.131 100.347 228.83 100.261 228.492 100.261ZM236.526 99.2727V108H235.205V100.594H235.153L233.065 101.957V100.696L235.243 99.2727H236.526ZM238.886 108V107.045L241.839 103.986C242.155 103.653 242.415 103.362 242.619 103.112C242.827 102.859 242.982 102.619 243.084 102.392C243.186 102.165 243.237 101.923 243.237 101.668C243.237 101.378 243.169 101.128 243.033 100.918C242.896 100.705 242.71 100.541 242.474 100.428C242.239 100.311 241.973 100.253 241.678 100.253C241.365 100.253 241.092 100.317 240.859 100.445C240.626 100.572 240.447 100.753 240.322 100.986C240.197 101.219 240.135 101.491 240.135 101.804H238.878C238.878 101.273 239 100.808 239.244 100.411C239.489 100.013 239.824 99.7045 240.25 99.4858C240.676 99.2642 241.161 99.1534 241.703 99.1534C242.251 99.1534 242.734 99.2628 243.152 99.4815C243.572 99.6974 243.901 99.9929 244.136 100.368C244.372 100.74 244.49 101.161 244.49 101.629C244.49 101.953 244.429 102.27 244.307 102.58C244.188 102.889 243.979 103.234 243.68 103.615C243.382 103.993 242.967 104.452 242.436 104.991L240.702 106.807V106.871H244.631V108H238.886Z" fill="black"/>
<path d="M220.839 53V52.0455L223.793 48.9858C224.108 48.6534 224.368 48.3622 224.572 48.1122C224.78 47.8594 224.935 47.6193 225.037 47.392C225.139 47.1648 225.19 46.9233 225.19 46.6676C225.19 46.3778 225.122 46.1278 224.986 45.9176C224.849 45.7045 224.663 45.5412 224.428 45.4276C224.192 45.3111 223.926 45.2528 223.631 45.2528C223.318 45.2528 223.045 45.3168 222.812 45.4446C222.58 45.5724 222.401 45.7528 222.276 45.9858C222.151 46.2187 222.088 46.4915 222.088 46.804H220.831C220.831 46.2727 220.953 45.8082 221.197 45.4105C221.442 45.0128 221.777 44.7045 222.203 44.4858C222.629 44.2642 223.114 44.1534 223.656 44.1534C224.205 44.1534 224.688 44.2628 225.105 44.4815C225.526 44.6974 225.854 44.9929 226.089 45.3679C226.325 45.7401 226.443 46.1605 226.443 46.6293C226.443 46.9531 226.382 47.2699 226.26 47.5795C226.141 47.8892 225.932 48.2344 225.634 48.6151C225.335 48.9929 224.92 49.4517 224.389 49.9915L222.655 51.8068V51.8707H226.584V53H220.839ZM231.237 53.1193C230.652 53.1193 230.129 53.0185 229.669 52.8168C229.212 52.6151 228.849 52.3352 228.582 51.9773C228.318 51.6165 228.176 51.1989 228.156 50.7244H229.494C229.511 50.983 229.598 51.2074 229.754 51.3977C229.913 51.5852 230.121 51.7301 230.376 51.8324C230.632 51.9347 230.916 51.9858 231.229 51.9858C231.572 51.9858 231.876 51.9261 232.141 51.8068C232.408 51.6875 232.616 51.5213 232.767 51.3082C232.918 51.0923 232.993 50.8438 232.993 50.5625C232.993 50.2699 232.918 50.0128 232.767 49.7912C232.619 49.5668 232.402 49.3906 232.115 49.2628C231.831 49.1349 231.487 49.071 231.084 49.071H230.347V47.9972H231.084C231.408 47.9972 231.692 47.9389 231.936 47.8224C232.183 47.706 232.376 47.544 232.516 47.3366C232.655 47.1264 232.724 46.8807 232.724 46.5994C232.724 46.3295 232.663 46.0952 232.541 45.8963C232.422 45.6946 232.251 45.5369 232.03 45.4233C231.811 45.3097 231.553 45.2528 231.254 45.2528C230.97 45.2528 230.705 45.3054 230.457 45.4105C230.213 45.5128 230.014 45.6605 229.861 45.8537C229.707 46.044 229.625 46.2727 229.614 46.5398H228.339C228.354 46.0682 228.493 45.6534 228.757 45.2955C229.024 44.9375 229.376 44.6577 229.814 44.456C230.251 44.2543 230.737 44.1534 231.271 44.1534C231.831 44.1534 232.314 44.2628 232.72 44.4815C233.129 44.6974 233.445 44.9858 233.666 45.3466C233.891 45.7074 234.001 46.1023 233.999 46.5312C234.001 47.0199 233.865 47.4347 233.589 47.7756C233.317 48.1165 232.953 48.3452 232.499 48.4616V48.5298C233.078 48.6179 233.527 48.848 233.845 49.2202C234.166 49.5923 234.325 50.054 234.322 50.6051C234.325 51.0852 234.192 51.5156 233.922 51.8963C233.655 52.277 233.29 52.5767 232.827 52.7955C232.364 53.0114 231.834 53.1193 231.237 53.1193ZM235.933 53V52.0455L238.886 48.9858C239.202 48.6534 239.462 48.3622 239.666 48.1122C239.874 47.8594 240.028 47.6193 240.131 47.392C240.233 47.1648 240.284 46.9233 240.284 46.6676C240.284 46.3778 240.216 46.1278 240.08 45.9176C239.943 45.7045 239.757 45.5412 239.521 45.4276C239.286 45.3111 239.02 45.2528 238.724 45.2528C238.412 45.2528 238.139 45.3168 237.906 45.4446C237.673 45.5724 237.494 45.7528 237.369 45.9858C237.244 46.2187 237.182 46.4915 237.182 46.804H235.925C235.925 46.2727 236.047 45.8082 236.291 45.4105C236.536 45.0128 236.871 44.7045 237.297 44.4858C237.723 44.2642 238.207 44.1534 238.75 44.1534C239.298 44.1534 239.781 44.2628 240.199 44.4815C240.619 44.6974 240.947 44.9929 241.183 45.3679C241.419 45.7401 241.537 46.1605 241.537 46.6293C241.537 46.9531 241.476 47.2699 241.354 47.5795C241.234 47.8892 241.026 48.2344 240.727 48.6151C240.429 48.9929 240.014 49.4517 239.483 49.9915L237.749 51.8068V51.8707H241.678V53H235.933Z" fill="black"/>
<path d="M222.878 163.145C222.205 163.142 221.629 162.964 221.152 162.612C220.675 162.26 220.31 161.747 220.057 161.074C219.804 160.401 219.678 159.589 219.678 158.641C219.678 157.695 219.804 156.886 220.057 156.216C220.313 155.545 220.679 155.034 221.156 154.682C221.636 154.33 222.21 154.153 222.878 154.153C223.545 154.153 224.118 154.331 224.595 154.686C225.072 155.038 225.438 155.55 225.69 156.22C225.946 156.888 226.074 157.695 226.074 158.641C226.074 159.592 225.947 160.405 225.695 161.078C225.442 161.749 225.077 162.261 224.599 162.616C224.122 162.969 223.548 163.145 222.878 163.145ZM222.878 162.007C223.469 162.007 223.93 161.719 224.263 161.142C224.598 160.565 224.766 159.732 224.766 158.641C224.766 157.916 224.689 157.304 224.536 156.804C224.385 156.301 224.168 155.92 223.884 155.662C223.602 155.401 223.267 155.27 222.878 155.27C222.29 155.27 221.828 155.56 221.493 156.139C221.158 156.719 220.989 157.553 220.986 158.641C220.986 159.368 221.061 159.983 221.212 160.486C221.365 160.986 221.582 161.365 221.864 161.624C222.145 161.879 222.483 162.007 222.878 162.007ZM228.126 163.081C227.893 163.081 227.692 162.999 227.525 162.834C227.357 162.666 227.273 162.464 227.273 162.229C227.273 161.996 227.357 161.797 227.525 161.632C227.692 161.464 227.893 161.381 228.126 161.381C228.359 161.381 228.559 161.464 228.727 161.632C228.894 161.797 228.978 161.996 228.978 162.229C228.978 162.385 228.938 162.528 228.859 162.659C228.782 162.787 228.68 162.889 228.552 162.966C228.424 163.043 228.282 163.081 228.126 163.081ZM230.668 163V162.045L233.621 158.986C233.936 158.653 234.196 158.362 234.401 158.112C234.608 157.859 234.763 157.619 234.865 157.392C234.967 157.165 235.018 156.923 235.018 156.668C235.018 156.378 234.95 156.128 234.814 155.918C234.678 155.705 234.491 155.541 234.256 155.428C234.02 155.311 233.754 155.253 233.459 155.253C233.146 155.253 232.874 155.317 232.641 155.445C232.408 155.572 232.229 155.753 232.104 155.986C231.979 156.219 231.916 156.491 231.916 156.804H230.659C230.659 156.273 230.781 155.808 231.026 155.411C231.27 155.013 231.605 154.705 232.031 154.486C232.457 154.264 232.942 154.153 233.484 154.153C234.033 154.153 234.516 154.263 234.933 154.482C235.354 154.697 235.682 154.993 235.918 155.368C236.153 155.74 236.271 156.161 236.271 156.629C236.271 156.953 236.21 157.27 236.088 157.58C235.969 157.889 235.76 158.234 235.462 158.615C235.163 158.993 234.749 159.452 234.217 159.991L232.483 161.807V161.871H236.412V163H230.668ZM241.065 163.119C240.48 163.119 239.957 163.018 239.497 162.817C239.04 162.615 238.678 162.335 238.411 161.977C238.146 161.616 238.004 161.199 237.984 160.724H239.322C239.339 160.983 239.426 161.207 239.582 161.398C239.741 161.585 239.949 161.73 240.205 161.832C240.46 161.935 240.744 161.986 241.057 161.986C241.401 161.986 241.705 161.926 241.969 161.807C242.236 161.687 242.445 161.521 242.595 161.308C242.746 161.092 242.821 160.844 242.821 160.562C242.821 160.27 242.746 160.013 242.595 159.791C242.447 159.567 242.23 159.391 241.943 159.263C241.659 159.135 241.315 159.071 240.912 159.071H240.175V157.997H240.912C241.236 157.997 241.52 157.939 241.764 157.822C242.011 157.706 242.205 157.544 242.344 157.337C242.483 157.126 242.553 156.881 242.553 156.599C242.553 156.33 242.491 156.095 242.369 155.896C242.25 155.695 242.08 155.537 241.858 155.423C241.639 155.31 241.381 155.253 241.082 155.253C240.798 155.253 240.533 155.305 240.286 155.411C240.041 155.513 239.842 155.661 239.689 155.854C239.536 156.044 239.453 156.273 239.442 156.54H238.168C238.182 156.068 238.321 155.653 238.585 155.295C238.852 154.937 239.205 154.658 239.642 154.456C240.08 154.254 240.565 154.153 241.099 154.153C241.659 154.153 242.142 154.263 242.548 154.482C242.957 154.697 243.273 154.986 243.494 155.347C243.719 155.707 243.83 156.102 243.827 156.531C243.83 157.02 243.693 157.435 243.418 157.776C243.145 158.116 242.781 158.345 242.327 158.462V158.53C242.906 158.618 243.355 158.848 243.673 159.22C243.994 159.592 244.153 160.054 244.151 160.605C244.153 161.085 244.02 161.516 243.75 161.896C243.483 162.277 243.118 162.577 242.655 162.795C242.192 163.011 241.662 163.119 241.065 163.119Z" fill="black"/>
<path d="M160.112 135.136V134.182L163.065 131.122C163.381 130.79 163.641 130.499 163.845 130.249C164.053 129.996 164.207 129.756 164.31 129.529C164.412 129.301 164.463 129.06 164.463 128.804C164.463 128.514 164.395 128.264 164.259 128.054C164.122 127.841 163.936 127.678 163.7 127.564C163.464 127.448 163.199 127.389 162.903 127.389C162.591 127.389 162.318 127.453 162.085 127.581C161.852 127.709 161.673 127.889 161.548 128.122C161.423 128.355 161.361 128.628 161.361 128.94H160.104C160.104 128.409 160.226 127.945 160.47 127.547C160.714 127.149 161.05 126.841 161.476 126.622C161.902 126.401 162.386 126.29 162.929 126.29C163.477 126.29 163.96 126.399 164.378 126.618C164.798 126.834 165.126 127.129 165.362 127.504C165.598 127.877 165.716 128.297 165.716 128.766C165.716 129.09 165.655 129.406 165.533 129.716C165.413 130.026 165.205 130.371 164.906 130.752C164.608 131.129 164.193 131.588 163.662 132.128L161.928 133.943V134.007H165.857V135.136H160.112ZM170.518 135.256C170.129 135.25 169.746 135.179 169.368 135.043C168.993 134.906 168.652 134.679 168.345 134.361C168.038 134.043 167.793 133.615 167.608 133.078C167.426 132.541 167.335 131.871 167.335 131.067C167.335 130.306 167.41 129.629 167.561 129.038C167.714 128.448 167.935 127.949 168.222 127.543C168.509 127.134 168.855 126.823 169.261 126.609C169.668 126.396 170.124 126.29 170.629 126.29C171.149 126.29 171.611 126.392 172.014 126.597C172.418 126.801 172.744 127.084 172.994 127.445C173.247 127.806 173.408 128.216 173.476 128.676H172.176C172.088 128.313 171.913 128.016 171.652 127.786C171.391 127.556 171.05 127.44 170.629 127.44C169.99 127.44 169.491 127.719 169.134 128.276C168.778 128.832 168.599 129.607 168.597 130.598H168.66C168.811 130.351 168.996 130.141 169.214 129.967C169.436 129.791 169.683 129.656 169.956 129.563C170.232 129.466 170.521 129.418 170.825 129.418C171.331 129.418 171.788 129.541 172.197 129.788C172.609 130.033 172.937 130.371 173.182 130.803C173.426 131.234 173.548 131.729 173.548 132.286C173.548 132.842 173.422 133.347 173.169 133.798C172.919 134.25 172.567 134.608 172.112 134.872C171.658 135.134 171.126 135.261 170.518 135.256ZM170.514 134.148C170.849 134.148 171.149 134.065 171.413 133.901C171.678 133.736 171.886 133.514 172.04 133.236C172.193 132.957 172.27 132.646 172.27 132.303C172.27 131.967 172.195 131.662 172.044 131.386C171.896 131.111 171.692 130.892 171.43 130.73C171.172 130.568 170.876 130.487 170.544 130.487C170.291 130.487 170.057 130.536 169.841 130.632C169.628 130.729 169.44 130.862 169.278 131.033C169.116 131.203 168.989 131.399 168.895 131.621C168.804 131.84 168.759 132.071 168.759 132.315C168.759 132.642 168.834 132.945 168.984 133.223C169.138 133.502 169.347 133.726 169.611 133.896C169.878 134.064 170.179 134.148 170.514 134.148Z" fill="black"/>
<path d="M160.112 162.551V161.596L163.065 158.537C163.381 158.204 163.641 157.913 163.845 157.663C164.053 157.41 164.207 157.17 164.31 156.943C164.412 156.716 164.463 156.474 164.463 156.219C164.463 155.929 164.395 155.679 164.259 155.469C164.122 155.256 163.936 155.092 163.7 154.979C163.464 154.862 163.199 154.804 162.903 154.804C162.591 154.804 162.318 154.868 162.085 154.996C161.852 155.123 161.673 155.304 161.548 155.537C161.423 155.77 161.361 156.043 161.361 156.355H160.104C160.104 155.824 160.226 155.359 160.47 154.962C160.714 154.564 161.05 154.256 161.476 154.037C161.902 153.815 162.386 153.704 162.929 153.704C163.477 153.704 163.96 153.814 164.378 154.033C164.798 154.248 165.126 154.544 165.362 154.919C165.598 155.291 165.716 155.712 165.716 156.18C165.716 156.504 165.655 156.821 165.533 157.131C165.413 157.44 165.205 157.785 164.906 158.166C164.608 158.544 164.193 159.003 163.662 159.543L161.928 161.358V161.422H165.857V162.551H160.112ZM167.472 162.551V161.596L170.425 158.537C170.74 158.204 171 157.913 171.205 157.663C171.412 157.41 171.567 157.17 171.669 156.943C171.771 156.716 171.822 156.474 171.822 156.219C171.822 155.929 171.754 155.679 171.618 155.469C171.482 155.256 171.295 155.092 171.06 154.979C170.824 154.862 170.558 154.804 170.263 154.804C169.95 154.804 169.678 154.868 169.445 154.996C169.212 155.123 169.033 155.304 168.908 155.537C168.783 155.77 168.72 156.043 168.72 156.355H167.463C167.463 155.824 167.585 155.359 167.83 154.962C168.074 154.564 168.409 154.256 168.835 154.037C169.261 153.815 169.746 153.704 170.288 153.704C170.837 153.704 171.32 153.814 171.737 154.033C172.158 154.248 172.486 154.544 172.722 154.919C172.957 155.291 173.075 155.712 173.075 156.18C173.075 156.504 173.014 156.821 172.892 157.131C172.773 157.44 172.564 157.785 172.266 158.166C171.967 158.544 171.553 159.003 171.021 159.543L169.287 161.358V161.422H173.216V162.551H167.472Z" fill="black"/>
<path d="M88.8565 108V101.455H90.0881V102.494H90.1562C90.2756 102.142 90.4858 101.865 90.7869 101.663C91.0909 101.459 91.4347 101.357 91.8182 101.357C91.8977 101.357 91.9915 101.359 92.0994 101.365C92.2102 101.371 92.2969 101.378 92.3594 101.386V102.605C92.3082 102.591 92.2173 102.575 92.0866 102.558C91.956 102.538 91.8253 102.528 91.6946 102.528C91.3935 102.528 91.125 102.592 90.8892 102.72C90.6563 102.845 90.4716 103.02 90.3352 103.244C90.1989 103.466 90.1307 103.719 90.1307 104.003V108H88.8565ZM96.0487 108.132C95.4038 108.132 94.8484 107.994 94.3825 107.719C93.9194 107.44 93.5614 107.05 93.3086 106.547C93.0586 106.041 92.9336 105.449 92.9336 104.77C92.9336 104.099 93.0586 103.509 93.3086 102.997C93.5614 102.486 93.9137 102.087 94.3654 101.8C94.82 101.513 95.3512 101.369 95.9592 101.369C96.3285 101.369 96.6864 101.43 97.033 101.553C97.3796 101.675 97.6907 101.866 97.9663 102.128C98.2418 102.389 98.4592 102.729 98.6183 103.146C98.7773 103.561 98.8569 104.065 98.8569 104.659V105.111H93.6538V104.156H97.6083C97.6083 103.821 97.5401 103.524 97.4038 103.266C97.2674 103.004 97.0756 102.798 96.8285 102.648C96.5842 102.497 96.2972 102.422 95.9677 102.422C95.6097 102.422 95.2972 102.51 95.0302 102.686C94.766 102.859 94.5614 103.087 94.4165 103.368C94.2745 103.646 94.2035 103.949 94.2035 104.276V105.021C94.2035 105.459 94.2802 105.831 94.4336 106.138C94.5898 106.445 94.8072 106.679 95.0856 106.841C95.364 107 95.6893 107.08 96.0614 107.08C96.3029 107.08 96.5231 107.045 96.7219 106.977C96.9208 106.906 97.0927 106.801 97.2376 106.662C97.3825 106.523 97.4933 106.351 97.57 106.146L98.7759 106.364C98.6793 106.719 98.506 107.03 98.256 107.297C98.0089 107.561 97.6978 107.767 97.3228 107.915C96.9506 108.06 96.5259 108.132 96.0487 108.132ZM101.545 104.114V108H100.271V101.455H101.494V102.52H101.575C101.725 102.173 101.961 101.895 102.282 101.685C102.606 101.474 103.013 101.369 103.505 101.369C103.951 101.369 104.342 101.463 104.677 101.651C105.012 101.835 105.272 102.111 105.457 102.477C105.641 102.844 105.734 103.297 105.734 103.837V108H104.46V103.99C104.46 103.516 104.336 103.145 104.089 102.878C103.842 102.608 103.502 102.473 103.07 102.473C102.775 102.473 102.512 102.537 102.282 102.665C102.055 102.793 101.874 102.98 101.741 103.227C101.61 103.472 101.545 103.767 101.545 104.114ZM110.263 108.132C109.619 108.132 109.063 107.994 108.597 107.719C108.134 107.44 107.776 107.05 107.523 106.547C107.273 106.041 107.148 105.449 107.148 104.77C107.148 104.099 107.273 103.509 107.523 102.997C107.776 102.486 108.129 102.087 108.58 101.8C109.035 101.513 109.566 101.369 110.174 101.369C110.543 101.369 110.901 101.43 111.248 101.553C111.594 101.675 111.906 101.866 112.181 102.128C112.457 102.389 112.674 102.729 112.833 103.146C112.992 103.561 113.072 104.065 113.072 104.659V105.111H107.869V104.156H111.823C111.823 103.821 111.755 103.524 111.619 103.266C111.482 103.004 111.29 102.798 111.043 102.648C110.799 102.497 110.512 102.422 110.183 102.422C109.825 102.422 109.512 102.51 109.245 102.686C108.981 102.859 108.776 103.087 108.631 103.368C108.489 103.646 108.418 103.949 108.418 104.276V105.021C108.418 105.459 108.495 105.831 108.648 106.138C108.805 106.445 109.022 106.679 109.3 106.841C109.579 107 109.904 107.08 110.276 107.08C110.518 107.08 110.738 107.045 110.937 106.977C111.136 106.906 111.308 106.801 111.452 106.662C111.597 106.523 111.708 106.351 111.785 106.146L112.991 106.364C112.894 106.719 112.721 107.03 112.471 107.297C112.224 107.561 111.913 107.767 111.538 107.915C111.165 108.06 110.741 108.132 110.263 108.132Z" fill="black"/>
<path d="M92.9119 128.455V129.477H89.3366V128.455H92.9119ZM90.2955 126.886H91.5696V133.078C91.5696 133.325 91.6065 133.511 91.6804 133.636C91.7543 133.759 91.8494 133.842 91.9659 133.888C92.0852 133.93 92.2145 133.952 92.3537 133.952C92.456 133.952 92.5455 133.945 92.6222 133.93C92.6989 133.916 92.7585 133.905 92.8011 133.896L93.0312 134.949C92.9574 134.977 92.8523 135.006 92.7159 135.034C92.5795 135.065 92.4091 135.082 92.2045 135.085C91.8693 135.091 91.5568 135.031 91.267 134.906C90.9773 134.781 90.7429 134.588 90.5639 134.327C90.3849 134.065 90.2955 133.737 90.2955 133.342V126.886ZM94.3214 135V128.455H95.5529V129.494H95.6211C95.7404 129.142 95.9506 128.865 96.2518 128.663C96.5558 128.459 96.8995 128.357 97.283 128.357C97.3626 128.357 97.4563 128.359 97.5643 128.365C97.6751 128.371 97.7617 128.378 97.8242 128.386V129.605C97.7731 129.591 97.6822 129.575 97.5515 129.558C97.4208 129.538 97.2901 129.528 97.1594 129.528C96.8583 129.528 96.5898 129.592 96.354 129.72C96.1211 129.845 95.9364 130.02 95.8001 130.244C95.6637 130.466 95.5955 130.719 95.5955 131.003V135H94.3214ZM101.45 135.132C100.836 135.132 100.3 134.991 99.843 134.71C99.3857 134.429 99.0305 134.036 98.7777 133.53C98.5249 133.024 98.3984 132.433 98.3984 131.757C98.3984 131.078 98.5249 130.484 98.7777 129.976C99.0305 129.467 99.3857 129.072 99.843 128.791C100.3 128.51 100.836 128.369 101.45 128.369C102.063 128.369 102.599 128.51 103.056 128.791C103.513 129.072 103.869 129.467 104.121 129.976C104.374 130.484 104.501 131.078 104.501 131.757C104.501 132.433 104.374 133.024 104.121 133.53C103.869 134.036 103.513 134.429 103.056 134.71C102.599 134.991 102.063 135.132 101.45 135.132ZM101.454 134.062C101.852 134.062 102.181 133.957 102.442 133.747C102.704 133.537 102.897 133.257 103.022 132.908C103.15 132.558 103.214 132.173 103.214 131.753C103.214 131.335 103.15 130.952 103.022 130.602C102.897 130.25 102.704 129.967 102.442 129.754C102.181 129.541 101.852 129.435 101.454 129.435C101.053 129.435 100.721 129.541 100.457 129.754C100.195 129.967 100.001 130.25 99.8729 130.602C99.7479 130.952 99.6854 131.335 99.6854 131.753C99.6854 132.173 99.7479 132.558 99.8729 132.908C100.001 133.257 100.195 133.537 100.457 133.747C100.721 133.957 101.053 134.062 101.454 134.062ZM106.506 137.455C106.315 137.455 106.142 137.439 105.986 137.408C105.83 137.379 105.713 137.348 105.636 137.314L105.943 136.27C106.176 136.332 106.384 136.359 106.565 136.351C106.747 136.342 106.908 136.274 107.047 136.146C107.189 136.018 107.314 135.81 107.422 135.52L107.58 135.085L105.185 128.455H106.548L108.206 133.534H108.274L109.932 128.455H111.3L108.602 135.874C108.477 136.214 108.318 136.503 108.125 136.739C107.932 136.977 107.702 137.156 107.435 137.276C107.168 137.395 106.858 137.455 106.506 137.455Z" fill="black"/>
<path d="M92.7684 161.587C92.1236 161.587 91.5682 161.449 91.1022 161.173C90.6392 160.895 90.2812 160.504 90.0284 160.001C89.7784 159.496 89.6534 158.903 89.6534 158.224C89.6534 157.554 89.7784 156.963 90.0284 156.452C90.2812 155.94 90.6335 155.541 91.0852 155.254C91.5397 154.967 92.071 154.824 92.6789 154.824C93.0483 154.824 93.4062 154.885 93.7528 155.007C94.0994 155.129 94.4105 155.321 94.6861 155.582C94.9616 155.844 95.1789 156.183 95.338 156.601C95.4971 157.016 95.5767 157.52 95.5767 158.114V158.565H90.3736V157.611H94.3281C94.3281 157.276 94.2599 156.979 94.1236 156.72C93.9872 156.459 93.7954 156.253 93.5483 156.102C93.3039 155.952 93.017 155.876 92.6875 155.876C92.3295 155.876 92.017 155.965 91.75 156.141C91.4858 156.314 91.2812 156.541 91.1363 156.822C90.9943 157.101 90.9233 157.403 90.9233 157.73V158.476C90.9233 158.913 91 159.286 91.1534 159.592C91.3096 159.899 91.527 160.134 91.8054 160.295C92.0838 160.455 92.4091 160.534 92.7812 160.534C93.0227 160.534 93.2429 160.5 93.4417 160.432C93.6406 160.361 93.8125 160.256 93.9574 160.117C94.1022 159.977 94.213 159.805 94.2897 159.601L95.4957 159.818C95.3991 160.173 95.2258 160.484 94.9758 160.751C94.7287 161.016 94.4176 161.222 94.0426 161.369C93.6704 161.514 93.2457 161.587 92.7684 161.587ZM98.2645 152.727V161.455H96.9904V152.727H98.2645ZM104.883 156.507L103.729 156.712C103.68 156.564 103.604 156.423 103.499 156.29C103.396 156.156 103.257 156.047 103.081 155.962C102.905 155.876 102.685 155.834 102.42 155.834C102.06 155.834 101.758 155.915 101.517 156.077C101.276 156.236 101.155 156.442 101.155 156.695C101.155 156.913 101.236 157.09 101.398 157.223C101.56 157.357 101.821 157.466 102.182 157.551L103.222 157.79C103.824 157.929 104.273 158.144 104.568 158.433C104.864 158.723 105.011 159.099 105.011 159.563C105.011 159.955 104.898 160.304 104.67 160.611C104.446 160.915 104.132 161.153 103.729 161.327C103.328 161.5 102.864 161.587 102.335 161.587C101.602 161.587 101.004 161.43 100.541 161.118C100.078 160.803 99.794 160.355 99.6889 159.776L100.92 159.588C100.997 159.909 101.155 160.152 101.393 160.317C101.632 160.479 101.943 160.56 102.327 160.56C102.744 160.56 103.078 160.473 103.328 160.3C103.578 160.124 103.703 159.909 103.703 159.656C103.703 159.452 103.626 159.28 103.473 159.141C103.322 159.001 103.091 158.896 102.778 158.825L101.67 158.582C101.06 158.443 100.608 158.222 100.315 157.918C100.026 157.614 99.8807 157.229 99.8807 156.763C99.8807 156.376 99.9886 156.038 100.205 155.749C100.42 155.459 100.719 155.233 101.099 155.071C101.48 154.906 101.916 154.824 102.408 154.824C103.115 154.824 103.672 154.977 104.078 155.284C104.484 155.588 104.753 155.996 104.883 156.507ZM108.317 161.599C107.902 161.599 107.527 161.523 107.192 161.369C106.857 161.213 106.591 160.987 106.395 160.692C106.202 160.396 106.105 160.034 106.105 159.605C106.105 159.236 106.176 158.932 106.319 158.693C106.461 158.455 106.652 158.266 106.894 158.126C107.135 157.987 107.405 157.882 107.703 157.811C108.002 157.74 108.306 157.686 108.615 157.649C109.007 157.604 109.326 157.567 109.57 157.538C109.814 157.507 109.992 157.457 110.103 157.389C110.213 157.321 110.269 157.21 110.269 157.057V157.027C110.269 156.655 110.164 156.367 109.953 156.162C109.746 155.957 109.436 155.855 109.024 155.855C108.595 155.855 108.257 155.95 108.01 156.141C107.766 156.328 107.597 156.537 107.503 156.767L106.306 156.494C106.448 156.097 106.655 155.776 106.928 155.531C107.203 155.284 107.52 155.105 107.878 154.994C108.236 154.881 108.613 154.824 109.007 154.824C109.269 154.824 109.546 154.855 109.838 154.918C110.134 154.977 110.409 155.088 110.665 155.25C110.924 155.412 111.135 155.644 111.3 155.945C111.465 156.243 111.547 156.631 111.547 157.108V161.455H110.303V160.56H110.252C110.169 160.724 110.046 160.886 109.881 161.045C109.716 161.205 109.505 161.337 109.246 161.442C108.988 161.547 108.678 161.599 108.317 161.599ZM108.594 160.577C108.946 160.577 109.247 160.507 109.497 160.368C109.75 160.229 109.942 160.047 110.073 159.822C110.206 159.595 110.273 159.352 110.273 159.094V158.25C110.228 158.295 110.14 158.338 110.009 158.378C109.881 158.415 109.735 158.447 109.57 158.476C109.405 158.501 109.245 158.526 109.088 158.548C108.932 158.568 108.801 158.585 108.696 158.599C108.449 158.631 108.223 158.683 108.019 158.757C107.817 158.831 107.655 158.938 107.533 159.077C107.414 159.213 107.354 159.395 107.354 159.622C107.354 159.938 107.47 160.176 107.703 160.338C107.936 160.497 108.233 160.577 108.594 160.577Z" fill="black"/>
<path d="M95.0028 44.2727V53H93.7926L89.3565 46.5994H89.2756V53H87.9588V44.2727H89.1776L93.6179 50.6818H93.6989V44.2727H95.0028ZM102.536 44.2727H103.857V50.0128C103.857 50.6236 103.713 51.1648 103.426 51.6364C103.14 52.1051 102.736 52.4744 102.216 52.7443C101.696 53.0114 101.087 53.1449 100.388 53.1449C99.6921 53.1449 99.0842 53.0114 98.5643 52.7443C98.0444 52.4744 97.641 52.1051 97.354 51.6364C97.0671 51.1648 96.9237 50.6236 96.9237 50.0128V44.2727H98.2404V49.9062C98.2404 50.3011 98.3271 50.652 98.5004 50.9588C98.6765 51.2656 98.9251 51.5071 99.2461 51.6832C99.5671 51.8565 99.9478 51.9432 100.388 51.9432C100.831 51.9432 101.213 51.8565 101.534 51.6832C101.858 51.5071 102.105 51.2656 102.276 50.9588C102.449 50.652 102.536 50.3011 102.536 49.9062V44.2727ZM105.771 53V44.2727H107.088V51.8665H111.043V53H105.771ZM112.545 53V44.2727H113.862V51.8665H117.816V53H112.545Z" fill="#FE1A1E"/>
<path d="M158.744 24.5255C158.33 24.5255 157.955 24.4488 157.619 24.2954C157.284 24.1391 157.018 23.9133 156.822 23.6178C156.629 23.3224 156.533 22.9602 156.533 22.5312C156.533 22.1619 156.604 21.8579 156.746 21.6193C156.888 21.3806 157.08 21.1917 157.321 21.0525C157.562 20.9133 157.832 20.8082 158.131 20.7371C158.429 20.6661 158.733 20.6121 159.043 20.5752C159.435 20.5298 159.753 20.4928 159.997 20.4644C160.241 20.4332 160.419 20.3835 160.53 20.3153C160.641 20.2471 160.696 20.1363 160.696 19.9829V19.9531C160.696 19.5809 160.591 19.2925 160.381 19.088C160.173 18.8835 159.864 18.7812 159.452 18.7812C159.023 18.7812 158.685 18.8764 158.437 19.0667C158.193 19.2542 158.024 19.463 157.93 19.6931L156.733 19.4204C156.875 19.0227 157.082 18.7016 157.355 18.4573C157.631 18.2102 157.947 18.0312 158.305 17.9204C158.663 17.8068 159.04 17.7499 159.435 17.7499C159.696 17.7499 159.973 17.7812 160.266 17.8437C160.561 17.9033 160.837 18.0141 161.092 18.1761C161.351 18.338 161.562 18.5695 161.727 18.8707C161.892 19.169 161.974 19.5568 161.974 20.034V24.3806H160.73V23.4857H160.679C160.597 23.6505 160.473 23.8124 160.308 23.9715C160.143 24.1306 159.932 24.2627 159.673 24.3678C159.415 24.4729 159.105 24.5255 158.744 24.5255ZM159.021 23.5028C159.374 23.5028 159.675 23.4332 159.925 23.294C160.178 23.1548 160.369 22.9729 160.5 22.7485C160.633 22.5212 160.7 22.2783 160.7 22.0198V21.1761C160.655 21.2215 160.567 21.2641 160.436 21.3039C160.308 21.3408 160.162 21.3735 159.997 21.4019C159.832 21.4275 159.672 21.4516 159.516 21.4744C159.359 21.4943 159.229 21.5113 159.124 21.5255C158.876 21.5568 158.651 21.6093 158.446 21.6832C158.244 21.757 158.082 21.8636 157.96 22.0028C157.841 22.1391 157.781 22.321 157.781 22.5482C157.781 22.8636 157.898 23.1022 158.131 23.2641C158.364 23.4232 158.66 23.5028 159.021 23.5028ZM166.416 26.9715C165.896 26.9715 165.448 26.9033 165.073 26.767C164.701 26.6306 164.397 26.4502 164.162 26.2258C163.926 26.0014 163.75 25.7556 163.633 25.4886L164.728 25.0369C164.805 25.1619 164.907 25.294 165.035 25.4332C165.166 25.5752 165.342 25.696 165.564 25.7954C165.788 25.8948 166.076 25.9445 166.429 25.9445C166.912 25.9445 167.311 25.8266 167.626 25.5908C167.941 25.3579 168.099 24.9857 168.099 24.4744V23.1874H168.018C167.941 23.3266 167.831 23.4815 167.686 23.6519C167.544 23.8224 167.348 23.9701 167.098 24.0951C166.848 24.2201 166.522 24.2826 166.122 24.2826C165.605 24.2826 165.139 24.1619 164.724 23.9204C164.312 23.6761 163.985 23.3167 163.744 22.8423C163.505 22.365 163.386 21.7783 163.386 21.0823C163.386 20.3863 163.504 19.7897 163.74 19.2925C163.978 18.7954 164.305 18.4147 164.72 18.1505C165.135 17.8835 165.605 17.7499 166.13 17.7499C166.537 17.7499 166.865 17.8181 167.115 17.9545C167.365 18.088 167.559 18.2443 167.698 18.4232C167.841 18.6022 167.95 18.7599 168.027 18.8962H168.12V17.8352H169.369V24.5255C169.369 25.088 169.238 25.5496 168.977 25.9104C168.716 26.2712 168.362 26.5383 167.916 26.7116C167.473 26.8849 166.973 26.9715 166.416 26.9715ZM166.403 23.2258C166.769 23.2258 167.079 23.1406 167.332 22.9701C167.588 22.7968 167.781 22.5496 167.912 22.2286C168.045 21.9048 168.112 21.517 168.112 21.0653C168.112 20.6249 168.046 20.2371 167.916 19.9019C167.785 19.5667 167.593 19.3053 167.341 19.1178C167.088 18.9275 166.775 18.8323 166.403 18.8323C166.019 18.8323 165.7 18.9318 165.444 19.1306C165.189 19.3266 164.995 19.5937 164.865 19.9318C164.737 20.2698 164.673 20.6477 164.673 21.0653C164.673 21.4943 164.738 21.8707 164.869 22.1945C165 22.5184 165.193 22.7712 165.448 22.9531C165.707 23.1349 166.025 23.2258 166.403 23.2258ZM173.899 24.5127C173.254 24.5127 172.698 24.3749 172.233 24.0994C171.769 23.821 171.412 23.4303 171.159 22.9275C170.909 22.4218 170.784 21.8295 170.784 21.1505C170.784 20.48 170.909 19.8891 171.159 19.3778C171.412 18.8664 171.764 18.4673 172.216 18.1803C172.67 17.8934 173.201 17.7499 173.809 17.7499C174.179 17.7499 174.537 17.811 174.883 17.9332C175.23 18.0553 175.541 18.2471 175.816 18.5085C176.092 18.7698 176.309 19.1093 176.468 19.5269C176.627 19.9417 176.707 20.446 176.707 21.0397V21.4914H171.504V20.5369H175.458C175.458 20.2016 175.39 19.9048 175.254 19.6462C175.117 19.3849 174.926 19.1789 174.679 19.0283C174.434 18.8778 174.147 18.8025 173.818 18.8025C173.46 18.8025 173.147 18.8906 172.88 19.0667C172.616 19.24 172.412 19.4673 172.267 19.7485C172.125 20.0269 172.054 20.3295 172.054 20.6562V21.4019C172.054 21.8394 172.13 22.2116 172.284 22.5184C172.44 22.8252 172.657 23.0596 172.936 23.2215C173.214 23.3806 173.539 23.4602 173.912 23.4602C174.153 23.4602 174.373 23.4261 174.572 23.3579C174.771 23.2869 174.943 23.1818 175.088 23.0425C175.233 22.9033 175.343 22.7315 175.42 22.5269L176.626 22.7443C176.529 23.0994 176.356 23.4104 176.106 23.6775C175.859 23.9417 175.548 24.1477 175.173 24.2954C174.801 24.4403 174.376 24.5127 173.899 24.5127Z" fill="black"/>
<path d="M215.131 20.1136V24H213.857V17.4545H215.08V18.5199H215.161C215.311 18.1733 215.547 17.8949 215.868 17.6847C216.192 17.4744 216.599 17.3693 217.091 17.3693C217.537 17.3693 217.928 17.4631 218.263 17.6506C218.598 17.8352 218.858 18.1108 219.043 18.4773C219.227 18.8437 219.32 19.2969 219.32 19.8366V24H218.045V19.9901C218.045 19.5156 217.922 19.1449 217.675 18.8778C217.428 18.608 217.088 18.473 216.656 18.473C216.361 18.473 216.098 18.5369 215.868 18.6648C215.641 18.7926 215.46 18.9801 215.327 19.2273C215.196 19.4716 215.131 19.767 215.131 20.1136ZM225.175 21.2855V17.4545H226.453V24H225.2V22.8665H225.132C224.982 23.2159 224.74 23.5071 224.408 23.7401C224.078 23.9702 223.668 24.0852 223.176 24.0852C222.756 24.0852 222.384 23.9929 222.06 23.8082C221.739 23.6207 221.486 23.3438 221.301 22.9773C221.119 22.6108 221.028 22.1577 221.028 21.6179V17.4545H222.303V21.4645C222.303 21.9105 222.426 22.2656 222.673 22.5298C222.92 22.794 223.241 22.9261 223.636 22.9261C223.875 22.9261 224.112 22.8665 224.348 22.7472C224.587 22.6278 224.784 22.4474 224.94 22.206C225.099 21.9645 225.178 21.6577 225.175 21.2855ZM228.165 24V17.4545H229.388V18.5199H229.469C229.605 18.1591 229.828 17.8778 230.138 17.6761C230.448 17.4716 230.819 17.3693 231.25 17.3693C231.688 17.3693 232.054 17.4716 232.35 17.6761C232.648 17.8807 232.868 18.1619 233.01 18.5199H233.078C233.235 18.1705 233.483 17.892 233.824 17.6847C234.165 17.4744 234.571 17.3693 235.043 17.3693C235.637 17.3693 236.121 17.5554 236.496 17.9276C236.874 18.2997 237.063 18.8608 237.063 19.6108V24H235.789V19.7301C235.789 19.2869 235.668 18.9659 235.426 18.767C235.185 18.5682 234.897 18.4688 234.561 18.4688C234.147 18.4688 233.824 18.5966 233.594 18.8523C233.364 19.1051 233.249 19.4304 233.249 19.8281V24H231.979V19.6491C231.979 19.294 231.868 19.0085 231.647 18.7926C231.425 18.5767 231.137 18.4688 230.782 18.4688C230.54 18.4688 230.317 18.5327 230.113 18.6605C229.911 18.7855 229.748 18.9602 229.623 19.1847C229.5 19.4091 229.439 19.669 229.439 19.9645V24H228.165ZM238.873 24V15.2727H240.147V18.5156H240.224C240.298 18.3793 240.404 18.2216 240.543 18.0426C240.683 17.8636 240.876 17.7074 241.123 17.5739C241.37 17.4375 241.697 17.3693 242.103 17.3693C242.631 17.3693 243.103 17.5028 243.518 17.7699C243.933 18.0369 244.258 18.4219 244.494 18.9247C244.732 19.4276 244.852 20.0327 244.852 20.7401C244.852 21.4474 244.734 22.054 244.498 22.5597C244.262 23.0625 243.938 23.4503 243.526 23.723C243.114 23.9929 242.644 24.1278 242.116 24.1278C241.718 24.1278 241.393 24.0611 241.14 23.9276C240.89 23.794 240.694 23.6378 240.552 23.4588C240.41 23.2798 240.3 23.1207 240.224 22.9815H240.117V24H238.873ZM240.121 20.7273C240.121 21.1875 240.188 21.5909 240.322 21.9375C240.455 22.2841 240.648 22.5554 240.901 22.7514C241.154 22.9446 241.464 23.0412 241.83 23.0412C242.211 23.0412 242.529 22.9403 242.785 22.7386C243.04 22.5341 243.234 22.2571 243.364 21.9077C243.498 21.5582 243.565 21.1648 243.565 20.7273C243.565 20.2955 243.499 19.9077 243.369 19.5639C243.241 19.2202 243.048 18.9489 242.789 18.75C242.533 18.5511 242.214 18.4517 241.83 18.4517C241.461 18.4517 241.148 18.5469 240.893 18.7372C240.64 18.9276 240.448 19.1932 240.317 19.5341C240.187 19.875 240.121 20.2727 240.121 20.7273ZM249.103 24.1321C248.458 24.1321 247.903 23.9943 247.437 23.7188C246.974 23.4403 246.616 23.0497 246.363 22.5469C246.113 22.0412 245.988 21.4489 245.988 20.7699C245.988 20.0994 246.113 19.5085 246.363 18.9972C246.616 18.4858 246.968 18.0866 247.42 17.7997C247.875 17.5128 248.406 17.3693 249.014 17.3693C249.383 17.3693 249.741 17.4304 250.088 17.5526C250.434 17.6747 250.745 17.8665 251.021 18.1278C251.297 18.3892 251.514 18.7287 251.673 19.1463C251.832 19.5611 251.912 20.0653 251.912 20.6591V21.1108H246.708V20.1562H250.663C250.663 19.821 250.595 19.5241 250.458 19.2656C250.322 19.0043 250.13 18.7983 249.883 18.6477C249.639 18.4972 249.352 18.4219 249.022 18.4219C248.664 18.4219 248.352 18.5099 248.085 18.6861C247.821 18.8594 247.616 19.0866 247.471 19.3679C247.329 19.6463 247.258 19.9489 247.258 20.2756V21.0213C247.258 21.4588 247.335 21.831 247.488 22.1378C247.645 22.4446 247.862 22.679 248.14 22.8409C248.419 23 248.744 23.0795 249.116 23.0795C249.358 23.0795 249.578 23.0455 249.777 22.9773C249.975 22.9062 250.147 22.8011 250.292 22.6619C250.437 22.5227 250.548 22.3509 250.625 22.1463L251.831 22.3636C251.734 22.7187 251.561 23.0298 251.311 23.2969C251.064 23.5611 250.752 23.767 250.377 23.9148C250.005 24.0597 249.581 24.1321 249.103 24.1321ZM253.325 24V17.4545H254.557V18.4943H254.625C254.744 18.142 254.955 17.8651 255.256 17.6634C255.56 17.4588 255.903 17.3565 256.287 17.3565C256.366 17.3565 256.46 17.3594 256.568 17.3651C256.679 17.3707 256.766 17.3778 256.828 17.3864V18.6051C256.777 18.5909 256.686 18.5753 256.555 18.5582C256.425 18.5384 256.294 18.5284 256.163 18.5284C255.862 18.5284 255.594 18.5923 255.358 18.7202C255.125 18.8452 254.94 19.0199 254.804 19.2443C254.668 19.4659 254.599 19.7187 254.599 20.0028V24H253.325Z" fill="black"/>
<path d="M223.003 72.2727V81H221.793L217.357 74.5994H217.276V81H215.959V72.2727H217.178L221.618 78.6818H221.699V72.2727H223.003ZM230.536 72.2727H231.857V78.0128C231.857 78.6236 231.713 79.1648 231.426 79.6364C231.14 80.1051 230.736 80.4744 230.216 80.7443C229.696 81.0114 229.087 81.1449 228.388 81.1449C227.692 81.1449 227.084 81.0114 226.564 80.7443C226.044 80.4744 225.641 80.1051 225.354 79.6364C225.067 79.1648 224.924 78.6236 224.924 78.0128V72.2727H226.24V77.9062C226.24 78.3011 226.327 78.652 226.5 78.9588C226.676 79.2656 226.925 79.5071 227.246 79.6832C227.567 79.8565 227.948 79.9432 228.388 79.9432C228.831 79.9432 229.213 79.8565 229.534 79.6832C229.858 79.5071 230.105 79.2656 230.276 78.9588C230.449 78.652 230.536 78.3011 230.536 77.9062V72.2727ZM233.771 81V72.2727H235.088V79.8665H239.043V81H233.771ZM240.545 81V72.2727H241.862V79.8665H245.816V81H240.545Z" fill="#FE1A1E"/>
<path d="M225.003 126.273V135H223.793L219.357 128.599H219.276V135H217.959V126.273H219.178L223.618 132.682H223.699V126.273H225.003ZM232.536 126.273H233.857V132.013C233.857 132.624 233.713 133.165 233.426 133.636C233.14 134.105 232.736 134.474 232.216 134.744C231.696 135.011 231.087 135.145 230.388 135.145C229.692 135.145 229.084 135.011 228.564 134.744C228.044 134.474 227.641 134.105 227.354 133.636C227.067 133.165 226.924 132.624 226.924 132.013V126.273H228.24V131.906C228.24 132.301 228.327 132.652 228.5 132.959C228.676 133.266 228.925 133.507 229.246 133.683C229.567 133.857 229.948 133.943 230.388 133.943C230.831 133.943 231.213 133.857 231.534 133.683C231.858 133.507 232.105 133.266 232.276 132.959C232.449 132.652 232.536 132.301 232.536 131.906V126.273ZM235.771 135V126.273H237.088V133.866H241.043V135H235.771ZM242.545 135V126.273H243.862V133.866H247.816V135H242.545Z" fill="#FE1A1E"/>
<defs>
<filter id="filter0_d_76_41" x="0" y="0" width="268" height="176" filterUnits="userSpaceOnUse" color-interpolation-filters="sRGB">
<feFlood flood-opacity="0" result="BackgroundImageFix"/>
<feColorMatrix in="SourceAlpha" type="matrix" values="0 0 0 0 0 0 0 0 0 0 0 0 0 0 0 0 0 0 127 0" result="hardAlpha"/>
<feOffset/>
<feGaussianBlur stdDeviation="2"/>
<feComposite in2="hardAlpha" operator="out"/>
<feColorMatrix type="matrix" values="0 0 0 0 0 0 0 0 0 0 0 0 0 0 0 0 0 0 0.25 0"/>
<feBlend mode="normal" in2="BackgroundImageFix" result="effect1_dropShadow_76_41"/>
<feBlend mode="normal" in="SourceGraphic" in2="effect1_dropShadow_76_41" result="shape"/>
</filter>
</defs>
</svg>
